<?xml version="1.0" encoding="iso-8859-1"?>
<!-- Generator: Adobe Illustrator 19.0.0, SVG Export Plug-In . SVG Version: 6.00 Build 0)  -->
<svg version="1.1" id="Capa_1" xmlns="http://www.w3.org/2000/svg" xmlns:xlink="http://www.w3.org/1999/xlink" x="0px" y="0px"
	 viewBox="0 0 480.014 480.014" style="enable-background:new 0 0 480.014 480.014;" xml:space="preserve">
<g>
	<path style="fill:#78B9EB;" d="M336.088,194.574c-0.08-0.88-0.08-1.68-0.08-2.48v7.92h0.8
		C336.406,198.226,336.165,196.406,336.088,194.574z"/>
	<path style="fill:#78B9EB;" d="M442.888,410.574c-6.406-29.478-32.474-50.519-62.64-50.56h-76.24v16
		c-0.053,17.651-14.349,31.947-32,32h-64c-17.651-0.053-31.947-14.349-32-32v-16h-76.24c-30.166,0.041-56.234,21.082-62.64,50.56
		l-13.12,61.44h432L442.888,410.574z"/>
	<path style="fill:#78B9EB;" d="M140.568,200.174c1.12-0.08,2.32-0.16,3.44-0.16v-8c17.673,0,32-14.327,32-32
		c0.013-1.499-0.094-2.998-0.32-4.48c4.947,2.912,10.579,4.458,16.32,4.48c10.768,0.024,20.82-5.393,26.72-14.4
		c7.49,18.389,28.469,27.224,46.858,19.735c9.519-3.877,16.923-11.642,20.342-21.335h2.32c-0.254,2.07-0.308,4.16-0.16,6.24
		c1.243,19.835,18.324,34.911,38.16,33.68c3.332-0.202,6.618-0.875,9.76-2v10.16c0,0.8,0,1.6,0.08,2.48
		c0.077,1.831,0.318,3.652,0.72,5.44c17.052,0.395,30.769,14.147,31.12,31.2c3.502,0.688,7.077,0.93,10.64,0.72
		c22.046-1.413,38.773-20.43,37.36-42.476c0-0.001,0-0.003,0-0.004c-0.688-11.664-6.52-22.42-15.92-29.36
		c17.705-13.212,21.348-38.275,8.136-55.98c-8.006-10.729-20.849-16.742-34.216-16.02c1.64-4.586,2.321-9.46,2-14.32
		c-1.243-19.835-18.324-34.911-38.16-33.68c-0.8,0.08-1.68,0.16-2.48,0.32c-4.239-21.721-25.284-35.894-47.005-31.655
		c-7.646,1.492-14.692,5.181-20.275,10.615c-15.861-15.441-41.235-15.101-56.677,0.759c-1.189,1.222-2.299,2.518-3.323,3.881
		c-17.64-13.241-42.673-9.674-55.914,7.965c-4.481,5.97-7.2,13.077-7.846,20.515c-4.903-2.947-10.519-4.497-16.24-4.48
		c-17.673,0-32,14.327-32,32c-0.011,2.922,0.393,5.831,1.2,8.64c-21.771,3.747-36.383,24.434-32.636,46.205
		c1.374,7.982,5.138,15.359,10.796,21.155c-15.433,15.85-15.095,41.21,0.755,56.643c7.464,7.268,17.467,11.342,27.885,11.357
		c3.153-0.008,6.294-0.384,9.36-1.12C117.052,210.548,127.763,201.602,140.568,200.174L140.568,200.174z"/>
</g>
<g>
	<path style="fill:#1E81CE;" d="M450.704,408.878c-7.323-33.083-36.573-56.69-70.456-56.864h-68.24v-8.8
		c18.611-3.827,31.976-20.199,32-39.2v-32.8c15.712-3.236,27.984-15.524,31.2-31.24c0.304,0,0.608,0.048,0.912,0.048
		c0.992,0,1.976,0,2.944-0.096c26.445-1.713,46.513-24.511,44.856-50.96c-0.639-10.727-4.907-20.917-12.104-28.896
		c17.679-19.754,15.996-50.099-3.758-67.778c-6.822-6.105-15.247-10.132-24.282-11.606c2.521-24.209-15.06-45.879-39.27-48.4
		c-1.062-0.111-2.127-0.183-3.194-0.216c-8.871-25.052-36.371-38.168-61.423-29.297c-4.229,1.498-8.229,3.58-11.881,6.185
		c-18.917-13.496-44.777-11.54-61.448,4.648c-6.938-3.703-14.688-5.625-22.552-5.592c-20.831,0.09-39.249,13.549-45.664,33.368
		c-3.37-0.909-6.845-1.369-10.336-1.368c-22.08,0.026-39.974,17.92-40,40c0,0.92,0,1.832,0.088,2.744
		c-25.036,8.823-38.179,36.271-29.355,61.307c1.499,4.255,3.59,8.277,6.211,11.949c-15.424,21.609-10.41,51.631,11.199,67.055
		c8.131,5.803,17.867,8.93,27.857,8.945c0.024,19.001,13.389,35.373,32,39.2v32.8c0.024,19.001,13.389,35.373,32,39.2v8.8h-68.24
		c-33.891,0.179-63.144,23.796-70.464,56.888l-13.12,61.44c-0.923,4.321,1.831,8.572,6.151,9.495c0.55,0.117,1.11,0.177,1.673,0.177
		h432c4.418,0,8-3.581,8.001-7.999c0-0.562-0.059-1.123-0.177-1.673L450.704,408.878z M184.008,360.014v-16h112v32
		c0,13.255-10.745,24-24,24h-64c-13.255,0-24-10.745-24-24V360.014z M344.008,254.646v-45.192c0.312,0.112,0.648,0.192,0.952,0.312
		c0.456,0.184,0.904,0.384,1.352,0.592c0.847,0.404,1.67,0.858,2.464,1.36c0.376,0.232,0.8,0.456,1.12,0.704
		c1.034,0.723,2.011,1.525,2.92,2.4l0.2,0.168c0.944,0.961,1.803,2.003,2.568,3.112c0.256,0.352,0.464,0.736,0.696,1.104
		c0.5,0.8,0.954,1.628,1.36,2.48c0.208,0.437,0.4,0.885,0.576,1.344c0.351,0.893,0.645,1.806,0.88,2.736
		c0.112,0.44,0.248,0.864,0.336,1.304c0.296,1.403,0.462,2.83,0.496,4.264c0.006,0.319,0.033,0.637,0.08,0.952
		C359.882,242.354,353.496,251.277,344.008,254.646L344.008,254.646z M72.008,184.014c-0.034-8.37,3.228-16.417,9.08-22.4
		c3.049-3.111,3.049-8.089,0-11.2c-12.342-12.65-12.093-32.909,0.557-45.251c4.631-4.519,10.523-7.527,16.899-8.629
		c4.356-0.74,7.288-4.87,6.548-9.226c-0.053-0.31-0.123-0.616-0.212-0.918c-0.587-2.074-0.88-4.22-0.872-6.376
		c0-13.255,10.745-24,24-24c4.275-0.018,8.473,1.139,12.136,3.344c3.792,2.268,8.704,1.033,10.972-2.758
		c0.628-1.05,1.007-2.23,1.108-3.45c1.479-16.463,15.254-29.091,31.784-29.136c6.931-0.043,13.681,2.207,19.2,6.4
		c1.688,1.297,3.83,1.854,5.936,1.544c2.103-0.307,3.997-1.438,5.264-3.144c6.066-8.031,15.536-12.766,25.6-12.8
		c8.37-0.034,16.417,3.228,22.4,9.08c3.111,3.049,8.089,3.049,11.2,0c12.697-12.351,33.002-12.07,45.352,0.627
		c4.334,4.456,7.28,10.075,8.48,16.173c0.827,4.34,5.016,7.188,9.357,6.36c0.014-0.003,0.029-0.006,0.043-0.008
		c0.544-0.104,1.152-0.152,1.448-0.184c15.41-0.908,28.661,10.796,29.664,26.2c0.252,3.777-0.277,7.564-1.552,11.128
		c-0.895,2.516-0.475,5.313,1.12,7.456c1.582,2.158,4.153,3.364,6.824,3.2c17.648-0.949,32.723,12.589,33.672,30.236
		c0.575,10.691-4.235,20.961-12.816,27.364c-3.535,2.651-4.251,7.665-1.6,11.2c0.455,0.606,0.994,1.145,1.6,1.6
		c7.495,5.538,12.151,14.114,12.712,23.416c1.114,17.636-12.255,32.848-29.888,34.008c-0.944,0.056-1.896,0.08-2.88,0.048
		c-0.056-0.256-0.152-0.488-0.208-0.744c-0.144-0.648-0.352-1.256-0.528-1.88c-0.43-1.633-0.965-3.236-1.6-4.8
		c-0.288-0.68-0.584-1.352-0.904-2.016c-0.735-1.521-1.566-2.993-2.488-4.408c-0.312-0.48-0.584-0.984-0.92-1.448
		c-1.32-1.87-2.797-3.623-4.416-5.24l-0.128-0.104c-1.596-1.545-3.32-2.953-5.152-4.208c-0.432-0.296-0.88-0.56-1.32-0.8
		c-1.537-0.988-3.141-1.867-4.8-2.632c-0.488-0.224-0.968-0.456-1.472-0.664c-1.991-0.821-4.046-1.479-6.144-1.968
		c-0.2,0-0.384-0.112-0.584-0.16s-0.312-0.032-0.472-0.032v-10.88c-0.003-4.418-3.587-7.998-8.005-7.995
		c-0.94,0.001-1.873,0.167-2.755,0.491c-2.421,0.855-4.949,1.367-7.512,1.52c-15.44,0.898-28.703-10.852-29.672-26.288
		c-0.108-1.563-0.065-3.133,0.128-4.688c0.53-4.386-2.596-8.372-6.982-8.902c-0.319-0.039-0.64-0.058-0.962-0.058h-2.32
		c-3.394,0.001-6.417,2.143-7.544,5.344c-5.139,14.557-21.105,22.192-35.662,17.053c-7.536-2.66-13.573-8.419-16.586-15.821
		c-1.667-4.092-6.336-6.057-10.427-4.39c-1.496,0.609-2.772,1.657-3.661,3.006c-7.198,10.523-21.272,13.75-32.336,7.416
		c-3.82-2.221-8.716-0.925-10.937,2.895c-0.928,1.597-1.276,3.466-0.983,5.289c0.156,1.062,0.228,2.135,0.216,3.208
		c0,13.255-10.745,24-24,24c-4.418,0-8,3.582-8,8v0.8c-0.424,0.088-0.8,0.232-1.248,0.328c-0.672,0.168-1.336,0.344-2,0.544
		c-1.136,0.328-2.232,0.72-3.32,1.144c-0.6,0.24-1.208,0.456-1.792,0.72c-1.237,0.564-2.444,1.192-3.616,1.88
		c-0.368,0.208-0.76,0.384-1.128,0.616c-1.477,0.924-2.894,1.942-4.24,3.048c-0.432,0.36-0.8,0.76-1.248,1.136
		c-0.896,0.8-1.768,1.6-2.592,2.504c-0.48,0.512-0.928,1.048-1.384,1.6c-0.696,0.8-1.36,1.688-1.992,2.584
		c-0.416,0.584-0.8,1.176-1.208,1.784c-0.624,0.992-1.184,2.016-1.72,3.064c-0.28,0.56-0.592,1.088-0.856,1.664
		c-0.064,0.136-0.144,0.264-0.208,0.408c-17.541,1.931-33.325-10.723-35.256-28.264C72.07,186.392,72.006,185.204,72.008,184.014
		L72.008,184.014z M120.008,232.014c0.002-2.319,0.35-4.624,1.032-6.84c0.507-1.654,1.194-3.247,2.048-4.752
		c0.168-0.304,0.328-0.616,0.512-0.92c0.845-1.394,1.829-2.699,2.936-3.896c0.2-0.224,0.424-0.416,0.632-0.624
		c1.065-1.074,2.234-2.042,3.488-2.888c0.176-0.12,0.328-0.264,0.512-0.376c1.37-0.863,2.826-1.582,4.344-2.144l0.496-0.176v45.248
		C126.426,251.244,120.02,242.182,120.008,232.014z M152.008,304.014v-104.8c16.043-3.299,28.466-16.026,31.376-32.144
		c11.941,2.605,24.418-0.359,33.912-8.056c14.918,19.183,42.562,22.64,61.744,7.722c1.32-1.027,2.581-2.128,3.776-3.298
		c6.796,18.146,24.662,29.711,44,28.48l1.192-0.096v112.192c0,13.255-10.745,24-24,24h-128
		C162.753,328.014,152.008,317.269,152.008,304.014z M382.784,464.014l-6.888-41.312l-15.776,2.624l6.448,38.688h-253.12
		l6.448-38.688l-15.776-2.624l-6.888,41.312H33.896l11.048-51.744c5.7-25.743,28.458-44.114,54.824-44.256h68.24v8
		c0.026,22.08,17.92,39.974,40,40h64c22.08-0.026,39.974-17.92,40-40v-8h68.24c26.357,0.14,49.109,18.5,54.816,44.232l11.056,51.768
		H382.784z"/>
	<circle style="fill:#1E81CE;" cx="288.008" cy="216.014" r="16"/>
	<circle style="fill:#1E81CE;" cx="192.008" cy="216.014" r="16"/>
</g>
<g>
</g>
<g>
</g>
<g>
</g>
<g>
</g>
<g>
</g>
<g>
</g>
<g>
</g>
<g>
</g>
<g>
</g>
<g>
</g>
<g>
</g>
<g>
</g>
<g>
</g>
<g>
</g>
<g>
</g>
</svg>
